<svg width="834" height="726" viewBox="0 0 834 726" fill="none" xmlns="http://www.w3.org/2000/svg">
<path d="M817.429 408.375C823.857 447.715 828.048 501.53 808.07 522.13C775.006 556.184 565.642 556.184 565.642 488.053C565.642 453.75 600.069 431.244 567.03 397.19C534.506 363.681 476.193 363.136 411.376 363.136C346.558 363.136 288.246 363.681 255.721 397.19C222.683 431.244 257.11 453.75 257.11 488.053C257.11 556.184 47.7453 556.184 14.681 522.13C-5.29646 501.53 -1.10556 447.715 5.32218 408.375C10.2844 382.103 22.7799 353.789 62.8119 317.625C122.873 268.166 213.735 227.76 408.162 226.898V226.875C409.242 226.875 410.296 226.875 411.376 226.875C412.456 226.875 413.51 226.875 414.59 226.875V226.898C609.016 227.76 699.879 268.166 759.939 317.625C799.971 353.789 812.493 382.103 817.429 408.375Z" fill="white"/>
</svg>
